<?xml version="1.0" standalone="no"?><!DOCTYPE svg PUBLIC "-//W3C//DTD SVG 1.1//EN" "http://www.w3.org/Graphics/SVG/1.1/DTD/svg11.dtd"><svg t="1752299440503" class="icon" viewBox="0 0 1024 1024" version="1.1" xmlns="http://www.w3.org/2000/svg" p-id="40309" xmlns:xlink="http://www.w3.org/1999/xlink" width="48" height="48"><path d="M952.11957 65.434c-39.373 0-71.885 31.897-71.885 71.884v745.78c0 39.372 31.898 71.884 71.885 71.884 39.987 0 71.885-31.897 71.885-71.884v-745.78c0-39.987-31.898-71.884-71.885-71.884z m-516.352 41.881c-26.266-57.497-108.8-55.654-131.891 3.738L5.02057 860.006C-9.36543 896.87 8.14557 938.752 45.01057 953.14s78.745-3.123 93.132-39.987l73.165-183.808c1.229 0 2.509 0.614 3.738 0.614H562.64057l85.657 186.932c16.896 36.25 59.392 51.865 95.027 35.02 36.25-16.896 51.866-59.392 35.021-95.027l-342.58-749.568zM268.85557 586.19l106.291-266.291 122.522 266.29H268.85557z" fill="#333333" p-id="40310"></path></svg>