<?xml version="1.0" standalone="no"?><!DOCTYPE svg PUBLIC "-//W3C//DTD SVG 1.1//EN" "http://www.w3.org/Graphics/SVG/1.1/DTD/svg11.dtd"><svg t="1776405554039" class="icon" viewBox="0 0 1024 1024" version="1.1" xmlns="http://www.w3.org/2000/svg" p-id="6870" xmlns:xlink="http://www.w3.org/1999/xlink" width="48" height="48"><path d="M832 106.666667H192C145.066667 106.666667 106.666667 145.066667 106.666667 192v640c0 46.933333 38.4 85.333333 85.333333 85.333333h640c46.933333 0 85.333333-38.4 85.333333-85.333333V192c0-46.933333-38.4-85.333333-85.333333-85.333333z m-166.4 390.4c0-8.533333 6.4-6.4 8.533333-6.4 10.666667 4.266667 17.066667 6.4 29.866667 10.666666 36.266667 8.533333 53.333333-2.133333 57.6-4.266666 12.8-8.533333 14.933333-25.6 4.266667-34.133334-10.666667-8.533333-14.933333-8.533333-53.333334-21.333333-4.266667 0-44.8-14.933333-44.8-51.2 0-27.733333 25.6-55.466667 70.4-55.466667 12.8 0 46.933333 4.266667 55.466667 17.066667 0 2.133333 2.133333 4.266667 2.133333 6.4v10.666667c0 4.266667-2.133333 6.4-4.266666 6.4-8.533333 0-21.333333-10.666667-49.066667-10.666667-6.4 0-40.533333 0-38.4 25.6 0 19.2 27.733333 25.6 29.866667 27.733333 36.266667 10.666667 49.066667 12.8 64 29.866667 17.066667 21.333333 8.533333 49.066667 4.266666 55.466667-19.2 36.266667-70.4 32-70.4 32-6.4 0-34.133333 0-57.6-12.8-4.266667-2.133333-8.533333-6.4-8.533333-12.8v-12.8z m-268.8-160h21.333333c8.533333 0 12.8 6.4 12.8 10.666666l36.266667 140.8 32-140.8c0-2.133333 2.133333-10.666667 12.8-10.666666h17.066667c2.133333 0 10.666667 0 12.8 10.666666L576 490.666667l36.266667-142.933334c0-2.133333 2.133333-10.666667 12.8-10.666666h19.2s6.4 0 4.266666 8.533333c0 2.133333 2.133333-10.666667-53.333333 170.666667 0 6.4-4.266667 10.666667-12.8 10.666666h-19.2c-10.666667 0-12.8-10.666667-12.8-10.666666l-32-136.533334-32 136.533334s-2.133333 12.8-12.8 10.666666h-17.066667c-8.533333 0-12.8-4.266667-12.8-10.666666l-49.066666-164.266667c0-2.133333-2.133333-6.4-2.133334-8.533333 0-4.266667 0-6.4 4.266667-6.4z m-106.666667 76.8c6.4 0 21.333333 0 46.933334 6.4v-17.066667c2.133333-25.6-14.933333-46.933333-44.8-44.8-2.133333 0-19.2 0-46.933334 10.666667-6.4 4.266667-6.4 4.266667-10.666666 4.266666-6.4 0-4.266667-21.333333-2.133334-23.466666 4.266667-6.4 36.266667-17.066667 66.133334-17.066667 19.2-2.133333 40.533333 4.266667 55.466666 17.066667 12.8 14.933333 19.2 32 17.066667 51.2v70.4c0 23.466667 10.666667 32 10.666667 38.4 0 2.133333-2.133333 4.266667-4.266667 6.4l-12.8 8.533333c-2.133333 0-4.266667 2.133333-6.4 2.133333 0 0-8.533333 2.133333-19.2-25.6-14.933333 19.2-38.4 29.866667-64 29.866667-17.066667 0-59.733333-8.533333-57.6-55.466667 0-40.533333 36.266667-64 72.533333-61.866666z m482.133334 224c-70.4 51.2-172.8 78.933333-258.133334 78.933333-117.333333 0-230.4-42.666667-317.866666-121.6-6.4-6.4 0-14.933333 6.4-8.533333 96 55.466667 206.933333 83.2 317.866666 83.2 83.2 0 164.266667-17.066667 241.066667-49.066667 10.666667-4.266667 21.333333 6.4 10.666667 17.066667z m17.066666 49.066666c-6.4 4.266667-10.666667 2.133333-8.533333-4.266666 10.666667-21.333333 29.866667-68.266667 19.2-81.066667-8.533333-12.8-59.733333-4.266667-81.066667-2.133333-6.4 0-8.533333-4.266667-2.133333-8.533334 40.533333-27.733333 106.666667-19.2 113.066667-10.666666 8.533333 10.666667-2.133333 74.666667-40.533334 106.666666z" p-id="6871"></path><path d="M285.866667 503.466667c32 0 46.933333-19.2 49.066666-29.866667 2.133333-10.666667 2.133333-17.066667 2.133334-27.733333-10.666667-2.133333-23.466667-4.266667-40.533334-4.266667-14.933333 0-42.666667 6.4-42.666666 32 2.133333 17.066667 12.8 29.866667 32 29.866667z" p-id="6872"></path></svg>