<?xml version="1.0" standalone="no"?><!DOCTYPE svg PUBLIC "-//W3C//DTD SVG 1.1//EN" "http://www.w3.org/Graphics/SVG/1.1/DTD/svg11.dtd"><svg t="1783496931179" class="icon" viewBox="0 0 1024 1024" version="1.1" xmlns="http://www.w3.org/2000/svg" p-id="10472" xmlns:xlink="http://www.w3.org/1999/xlink" width="48" height="48"><path d="M78.0288 894.8224h159.3344v-392.192L7.2192 324.352v499.1488a70.0928 70.0928 0 0 0 70.8096 71.3216z m0 0" fill="#4285F4" p-id="10473"></path><path d="M785.664 894.8224h159.3344a70.0416 70.0416 0 0 0 70.8096-71.3216V324.352l-230.4 178.2272v392.2432z m0 0" fill="#34A853" p-id="10474"></path><path d="M785.664 199.68v302.9504l230.4-178.2784V235.2128c0-53.4528-44.288-106.9568-106.2912-106.9568-26.5216 0-44.2368 8.9088-61.952 17.8176L785.664 199.68z m0 0" fill="#FBBC04" p-id="10475"></path><path d="M237.312 502.6304V199.68L512 404.48l274.3808-204.8v302.9504l-274.3808 204.8z m0 0" fill="#EA4335" p-id="10476"></path><path d="M7.2192 235.2128v89.1392l230.4 178.2784V199.68L175.4112 146.0736c-44.2368-26.7264-115.0976-17.8176-150.4768 26.7264-8.9088 17.8688-17.7152 35.84-17.7152 62.4128z m0 0" fill="#C5221F" p-id="10477"></path></svg>