<?xml version="1.0" standalone="no"?><!DOCTYPE svg PUBLIC "-//W3C//DTD SVG 1.1//EN" "http://www.w3.org/Graphics/SVG/1.1/DTD/svg11.dtd"><svg t="1752285420238" class="icon" viewBox="0 0 1024 1024" version="1.1" xmlns="http://www.w3.org/2000/svg" p-id="6525" xmlns:xlink="http://www.w3.org/1999/xlink" width="48" height="48"><path d="M0 0h1024v1024H0z" fill="#DD2727" p-id="6526"></path><path d="M573.696 215.7056c107.2128 0 190.3616 24.1152 246.6816 75.0592 56.32 48.2816 85.76 126.0544 85.76 222.5664-2.6624 96.512-32.1536 174.2848-85.76 222.5664-56.32 48.2816-139.4688 75.0592-246.6816 75.0592H447.6416V215.7056z m-193.0752-2.6624v386.0992l-0.3072 13.7216c-2.6624 63.0784-23.808 111.9232-61.3888 144.4864-40.192 34.816-104.5504 50.944-187.648 50.944h-13.4144V722.432h10.752l12.288-0.1536c23.9616-0.6656 43.9808-3.2768 60.0576-7.8848 18.7904-5.376 37.5296-13.4144 50.944-24.1152 10.752-8.0896 18.7904-21.504 24.1152-34.8672 5.376-16.0768 8.0896-42.9056 8.0896-83.1488V213.0432h96.512z m203.776 91.136h-42.9056v420.9664h42.9056l14.7456-0.2048c67.7888-2.3552 119.296-20.6848 156.8768-50.688 37.5296-34.8672 56.32-88.5248 56.32-158.208 0-69.7344-18.7904-126.0544-56.32-158.208-40.2432-37.5296-96.5632-53.6576-171.6224-53.6576z" fill="#FFFFFF" p-id="6527"></path></svg>